<?xml version="1.0" standalone="no"?><!DOCTYPE svg PUBLIC "-//W3C//DTD SVG 1.1//EN" "http://www.w3.org/Graphics/SVG/1.1/DTD/svg11.dtd"><svg t="1624155304353" class="icon" viewBox="0 0 1024 1024" version="1.1" xmlns="http://www.w3.org/2000/svg" p-id="3292" xmlns:xlink="http://www.w3.org/1999/xlink" width="200" height="200"><defs><style type="text/css"></style></defs><path d="M512 0a512 512 0 1 0 512 512A512 512 0 0 0 512 0z m233.813333 551.253333H551.253333v194.56a39.253333 39.253333 0 1 1-78.506666 0V551.253333H278.186667a39.253333 39.253333 0 0 1 0-78.506666h194.56V278.186667a39.253333 39.253333 0 1 1 78.506666 0v194.56h194.901334a39.936 39.936 0 0 1 39.936 39.253333 38.570667 38.570667 0 0 1-39.424 38.570667z" p-id="3293" data-spm-anchor-id="a313x.7781069.0.i3" class="selected" fill="#1296db"></path></svg>