<?xml version="1.0" standalone="no"?><!DOCTYPE svg PUBLIC "-//W3C//DTD SVG 1.1//EN" "http://www.w3.org/Graphics/SVG/1.1/DTD/svg11.dtd"><svg t="1624278781294" class="icon" viewBox="0 0 1024 1024" version="1.1" xmlns="http://www.w3.org/2000/svg" p-id="5313" xmlns:xlink="http://www.w3.org/1999/xlink" width="200" height="200"><defs><style type="text/css"></style></defs><path d="M512 180.705882a361.532235 361.532235 0 0 1 356.412235 301.176471c3.312941 40.176941-5.059765 60.235294-25.118117 60.235294-20.058353 0-32.105412-20.058353-36.141177-60.235294A301.296941 301.296941 0 0 0 210.823529 542.117647a301.176471 301.176471 0 0 0 361.472 295.152941c21.142588-1.084235 32.888471 6.264471 35.177412 22.046118 2.228706 15.721412-9.456941 28.792471-35.177412 39.152941A361.411765 361.411765 0 1 1 512 180.705882z m271.058824 421.647059a30.117647 30.117647 0 0 1 30.117647 30.117647V722.823529h90.352941a30.117647 30.117647 0 1 1 0 60.235295H813.176471v90.352941a30.117647 30.117647 0 1 1-60.235295 0V783.058824h-90.352941a30.117647 30.117647 0 1 1 0-60.235295H752.941176v-90.352941a30.117647 30.117647 0 0 1 30.117648-30.117647z m-131.011765 35.779765c0 27.286588-57.825882 84.690824-140.830118 84.690823-82.582588 0-140.950588-57.404235-140.950588-84.690823 0-5.12 4.096-7.529412 8.553412-4.336941 25.479529 20.178824 74.089412 40.357647 132.397176 40.357647 58.247529 0 106.435765-19.395765 132.758588-40.357647 4.457412-3.192471 8.071529-0.783059 8.07153 4.336941zM402.371765 421.647059c22.287059 0 41.261176 19.395765 41.261176 46.682353 0 27.346824-19.034353 46.742588-41.261176 46.742588-22.708706 0-40.899765-19.395765-40.899765-46.742588 0-27.286588 18.191059-46.682353 40.899765-46.682353z m218.593882 0c22.648471 0 41.682824 19.395765 41.682824 46.682353 0 27.346824-19.034353 46.742588-41.682824 46.742588-22.287059 0-40.899765-19.395765-40.899765-46.742588 0-27.286588 18.672941-46.682353 40.899765-46.682353z" p-id="5314"></path></svg>