<?xml version="1.0" standalone="no"?><!DOCTYPE svg PUBLIC "-//W3C//DTD SVG 1.1//EN" "http://www.w3.org/Graphics/SVG/1.1/DTD/svg11.dtd"><svg t="1624535784621" class="icon" viewBox="0 0 1024 1024" version="1.1" xmlns="http://www.w3.org/2000/svg" p-id="5028" xmlns:xlink="http://www.w3.org/1999/xlink" width="200" height="200"><defs><style type="text/css"></style></defs><path d="M1020.928 883.2c0 50.688-228.352 92.16-510.464 92.16-281.6 0-510.464-40.96-510.464-92.16 0-29.696 79.36-56.32 201.728-73.216 19.968-2.56 40.448-5.12 62.464-7.168 8.704 3.584 17.408 7.168 26.112 10.24 60.416 22.016 127.488 35.328 198.656 37.888v-0.512c2.048 0 4.096 0.512 6.144 0.512v-59.392h31.744v59.392c2.048 0 4.096 0 6.144-0.512v0.512c71.168-2.048 138.24-15.36 198.656-37.888 8.704-3.072 17.408-6.656 26.112-10.24 22.016 2.048 42.496 4.608 62.464 7.168 121.344 16.896 200.704 43.52 200.704 73.216z" fill="#D8E5EF" p-id="5029"></path><path d="M949.76 180.224h-105.984c-8.704 0-15.872-7.168-15.872-15.872v-3.584c0-8.704 7.168-15.872 15.872-15.872h105.984c8.704 0 15.872 7.168 15.872 15.872v3.584c0 8.704-7.168 15.872-15.872 15.872z" fill="#B6D4EF" p-id="5030"></path><path d="M879.104 215.552V109.568c0-8.704 7.168-15.872 15.872-15.872h3.584c8.704 0 15.872 7.168 15.872 15.872v105.984c0 8.704-7.168 15.872-15.872 15.872h-3.584c-8.704 0-15.872-7.168-15.872-15.872z" fill="#B6D4EF" p-id="5031"></path><path d="M91.648 761.344h-66.56c-5.632 0-10.24-4.608-10.24-10.24v-2.56c0-5.632 4.608-10.24 10.24-10.24h66.56c5.632 0 10.24 4.608 10.24 10.24v2.56c0 5.632-4.608 10.24-10.24 10.24z" fill="#DEECF9" p-id="5032"></path><path d="M47.104 783.36v-66.56c0-5.632 4.608-10.24 10.24-10.24h2.56c5.632 0 10.24 4.608 10.24 10.24v66.56c0 5.632-4.608 10.24-10.24 10.24h-2.56c-5.632 0-10.24-4.608-10.24-10.24z" fill="#DEECF9" p-id="5033"></path><path d="M510.464 109.568c-212.992 0-386.56 173.568-386.56 386.56 0 129.536 64 244.224 161.792 314.368 1.536 1.024 2.56 2.048 4.096 3.072 62.464 43.52 138.24 69.12 220.16 69.12s157.696-25.6 220.16-69.12c1.536-1.024 2.56-2.048 4.096-3.072 97.792-70.144 161.792-184.832 161.792-314.368 1.024-213.504-172.544-386.56-385.536-386.56z m354.816 403.456c-5.632 123.904-75.264 230.912-176.128 289.792-46.592 27.136-100.352 44.544-157.184 47.616-2.048 0-4.096 0.512-6.144 0.512-5.12 0-10.24 0.512-15.872 0.512-5.12 0-10.752 0-15.872-0.512-2.048 0-4.096 0-6.144-0.512-57.344-3.584-110.592-20.48-157.184-47.616-100.864-58.88-169.984-166.4-176.128-289.792-0.512-5.632-0.512-11.264-0.512-16.896 0-5.632 0-11.264 0.512-16.896C163.84 295.936 311.808 148.48 494.592 140.8c5.12 0 10.24-0.512 15.872-0.512 5.12 0 10.752 0 15.872 0.512 183.296 8.192 330.752 155.136 339.456 337.92 0 4.096 0.512 8.704 0.512 12.8v8.192c-0.512 4.608-0.512 8.704-1.024 13.312z" fill="#B6D4EF" p-id="5034"></path><path d="M753.152 478.72c-8.192-121.344-105.984-218.112-226.816-225.792-5.12-0.512-10.24-0.512-15.872-0.512-5.12 0-10.752 0-15.872 0.512-33.792 2.048-65.536 11.264-94.208 25.6a244.5312 244.5312 0 0 0-99.84 93.696c-18.432 31.744-30.208 67.584-33.28 106.496-0.512 5.632-0.512 11.264-0.512 16.896s0 11.264 0.512 16.896c8.192 121.344 105.472 218.112 226.816 225.792 5.12 0.512 10.24 0.512 15.872 0.512 5.12 0 10.752 0 15.872-0.512 50.688-3.072 96.768-22.016 134.144-51.2 25.6-19.968 46.592-45.056 62.464-73.216 16.896-30.208 27.648-64.512 30.208-101.376 0.512-5.632 0.512-11.264 0.512-16.896s0.512-11.264 0-16.896z" fill="#DEECF9" p-id="5035"></path><path d="M154.624 478.72h711.168v33.792H154.624v-33.792z" fill="#B6D4EF" p-id="5036"></path><path d="M494.592 140.288h31.744v711.168h-31.744zM289.792 335.36c0 38.4 31.232 69.632 69.632 69.632S429.056 373.76 429.056 335.36s-31.232-69.632-69.632-69.632c-38.4-0.512-69.632 30.72-69.632 69.632zM625.664 638.464c0 28.672 23.04 51.712 51.712 51.712s51.712-23.04 51.712-51.712-23.04-51.712-51.712-51.712-51.712 23.04-51.712 51.712z" fill="#B6D4EF" p-id="5037"></path></svg>