<?xml version="1.0" standalone="no"?><!DOCTYPE svg PUBLIC "-//W3C//DTD SVG 1.1//EN" "http://www.w3.org/Graphics/SVG/1.1/DTD/svg11.dtd"><svg t="1651154256646" class="icon" viewBox="0 0 1024 1024" version="1.1" xmlns="http://www.w3.org/2000/svg" p-id="14971" xmlns:xlink="http://www.w3.org/1999/xlink" width="200" height="200"><defs><style type="text/css">@font-face { font-family: feedback-iconfont; src: url("//at.alicdn.com/t/font_1031158_u69w8yhxdu.woff2?t=1630033759944") format("woff2"), url("//at.alicdn.com/t/font_1031158_u69w8yhxdu.woff?t=1630033759944") format("woff"), url("//at.alicdn.com/t/font_1031158_u69w8yhxdu.ttf?t=1630033759944") format("truetype"); }
</style></defs><path d="M68.256 0h887.456c37.696 0 68.256 30.56 68.256 68.256v887.456a68.256 68.256 0 0 1-68.256 68.256H68.256A68.256 68.256 0 0 1 0 955.712V68.256C0 30.56 30.56 0 68.256 0z" fill="#3AC3AE" p-id="14972"></path><path d="M801.312 255.936c51.008 32.64 67.136 100.8 36.64 153.568l-0.928 1.6-194.688 324.704a102.208 102.208 0 0 1-35.584 35.424c-47.776 28.192-108.736 11.904-136.992-36.256l-156.672-277.28c-9.824-17.248-31.328-23.008-48.064-13.056s-22.496 31.744-13.152 48.96l0.352 0.608 167.52 292.224-88.448 0.16-145.376-252.992c-30.816-54.144-13.376-123.392 38.848-155.68l1.6-0.96c53.312-31.776 121.76-13.376 152.864 41.12l0.16 0.288 0.064 0.128 155.84 275.808a23.936 23.936 0 0 0 41.184 1.248l0.448-0.704 194.688-324.704a35.328 35.328 0 0 0-11.008-47.808 31.968 31.968 0 0 0-44.608 10.496l-0.128 0.224-69.184 116.8-102.368 174.176-42.848-79.232 15.808-26.912a37.76 37.76 0 0 1 2.24-4.576l0.352-0.64 130.272-219.968 0.864-1.44c31.968-52.16 99.264-67.968 150.304-35.328z" fill="#FFFFFF" p-id="14973"></path></svg>