<?xml version="1.0" standalone="no"?><!DOCTYPE svg PUBLIC "-//W3C//DTD SVG 1.1//EN" "http://www.w3.org/Graphics/SVG/1.1/DTD/svg11.dtd"><svg t="1651590403685" class="icon" viewBox="0 0 1024 1024" version="1.1" xmlns="http://www.w3.org/2000/svg" p-id="5060" xmlns:xlink="http://www.w3.org/1999/xlink" width="200" height="200"><defs><style type="text/css">@font-face { font-family: feedback-iconfont; src: url("//at.alicdn.com/t/font_1031158_u69w8yhxdu.woff2?t=1630033759944") format("woff2"), url("//at.alicdn.com/t/font_1031158_u69w8yhxdu.woff?t=1630033759944") format("woff"), url("//at.alicdn.com/t/font_1031158_u69w8yhxdu.ttf?t=1630033759944") format("truetype"); }
</style></defs><path d="M458.8 690.6c-8.1 0-16.2-3.1-22.4-9.4-12.4-12.5-12.4-32.8 0-45.3l303.7-306.7c18.4-18.5 28.5-43.2 28.5-69.4s-10.1-50.8-28.5-69.4c-37.9-38.3-99.5-38.3-137.4 0L299 497.2a31.448 31.448 0 0 1-44.8 0c-12.4-12.5-12.4-32.8 0-45.3l303.7-306.7c62.6-63.2 164.5-63.2 227 0 30.3 30.6 47 71.3 47 114.6s-16.7 84-47 114.6L481.3 681.2c-6.2 6.2-14.3 9.4-22.5 9.4z" p-id="5061"></path><path d="M352.5 927.9c-41.1 0-82.2-15.8-113.5-47.4-30.3-30.6-47-71.3-47-114.6s16.7-84 47-114.6l303.7-306.7c12.4-12.5 32.4-12.5 44.8 0 12.4 12.5 12.4 32.8 0 45.3L283.8 696.5c-18.4 18.5-28.5 43.2-28.5 69.4 0 26.2 10.1 50.8 28.5 69.4 18.9 19.1 43.8 28.7 68.7 28.7 24.9 0 49.8-9.6 68.7-28.7L725 528.6c12.4-12.5 32.4-12.5 44.8 0 12.4 12.5 12.4 32.8 0 45.3L466.1 880.5c-31.3 31.6-72.4 47.4-113.6 47.4z" p-id="5062"></path></svg>