<?xml version="1.0" standalone="no"?><!DOCTYPE svg PUBLIC "-//W3C//DTD SVG 1.1//EN" "http://www.w3.org/Graphics/SVG/1.1/DTD/svg11.dtd"><svg t="1651590163831" class="icon" viewBox="0 0 1024 1024" version="1.1" xmlns="http://www.w3.org/2000/svg" p-id="4905" xmlns:xlink="http://www.w3.org/1999/xlink" width="200" height="200"><defs><style type="text/css">@font-face { font-family: feedback-iconfont; src: url("//at.alicdn.com/t/font_1031158_u69w8yhxdu.woff2?t=1630033759944") format("woff2"), url("//at.alicdn.com/t/font_1031158_u69w8yhxdu.woff?t=1630033759944") format("woff"), url("//at.alicdn.com/t/font_1031158_u69w8yhxdu.ttf?t=1630033759944") format("truetype"); }
</style></defs><path d="M535.630769 821.169231l-41.353846-5.907693s-27.569231-5.907692-41.353846-11.815384c-7.876923-1.969231-17.723077 0-23.630769 5.907692l-9.846154 9.846154c-57.107692 57.107692-149.661538 63.015385-208.738462 11.815385-66.953846-57.107692-68.923077-159.507692-7.876923-220.553847l149.661539-149.661538c19.692308-19.692308 43.323077-31.507692 66.953846-39.384615 31.507692-7.876923 64.984615-5.907692 94.523077 5.907692 17.723077 7.876923 35.446154 17.723077 51.2 33.476923 7.876923 7.876923 13.784615 15.753846 19.692307 25.6 7.876923 13.784615 25.6 15.753846 35.446154 3.938462l55.138462-55.138462c7.876923-7.876923 7.876923-19.692308 1.969231-29.538462-7.876923-11.815385-17.723077-21.661538-27.569231-31.507692-13.784615-13.784615-29.538462-27.569231-47.261539-37.415384-27.569231-17.723077-59.076923-29.538462-92.553846-35.446154-61.046154-11.815385-128-1.969231-183.138461 27.56923-21.661538 11.815385-43.323077 27.569231-61.046154 45.292308l-143.753846 143.753846C17.723077 622.276923 9.846154 791.630769 110.276923 897.969231c104.369231 114.215385 281.6 116.184615 389.907692 7.876923l49.23077-49.230769c13.784615-9.846154 3.938462-33.476923-13.784616-35.446154zM897.969231 114.215385c-108.307692-100.430769-277.661538-92.553846-380.061539 11.815384L472.615385 169.353846c-13.784615 13.784615-3.938462 37.415385 13.784615 39.384616 27.569231 1.969231 55.138462 7.876923 82.707692 15.753846 7.876923 1.969231 17.723077 0 23.63077-5.907693l9.846153-9.846153c57.107692-57.107692 149.661538-63.015385 208.738462-11.815385 66.953846 57.107692 68.923077 159.507692 7.876923 220.553846L669.538462 567.138462c-19.692308 19.692308-43.323077 31.507692-66.953847 39.384615-31.507692 7.876923-64.984615 5.907692-94.523077-5.907692-17.723077-7.876923-35.446154-17.723077-51.2-33.476923-7.876923-7.876923-13.784615-15.753846-19.692307-25.6-7.876923-13.784615-25.6-15.753846-35.446154-3.938462l-55.138462 55.138462c-7.876923 7.876923-7.876923 19.692308-1.96923 29.538461 7.876923 11.815385 17.723077 21.661538 27.56923 31.507692 13.784615 13.784615 31.507692 27.569231 47.261539 37.415385 27.569231 17.723077 59.076923 29.538462 90.584615 35.446154 61.046154 11.815385 128 1.969231 183.138462-27.569231 21.661538-11.815385 43.323077-27.569231 61.046154-45.292308l149.661538-149.661538c110.276923-108.307692 106.338462-285.538462-5.907692-389.907692z" p-id="4906"></path></svg>