<?xml version="1.0" standalone="no"?><!DOCTYPE svg PUBLIC "-//W3C//DTD SVG 1.1//EN" "http://www.w3.org/Graphics/SVG/1.1/DTD/svg11.dtd"><svg t="1624514553047" class="icon" viewBox="0 0 1024 1024" version="1.1" xmlns="http://www.w3.org/2000/svg" p-id="2407" xmlns:xlink="http://www.w3.org/1999/xlink" width="200" height="200"><defs><style type="text/css"></style></defs><path d="M240.09518102 124.15633423h-77.67229629C141.01122253 124.15633423 123.63851852 141.50314667 123.63851852 162.88891851v77.56873364c0 21.38577184 17.34681244 38.73258549 38.78436621 38.73258549h77.67229629c21.41166341 0 38.78436622-17.34681244 38.78436743-38.73258549v-77.56873364c0-21.38577184-17.34681244-38.73258549-38.78436743-38.73258428z m0 310.17136947h-77.67229629C141.01122253 434.3277037 123.63851852 451.67451614 123.63851852 473.06028919v77.56873243c0 21.38577184 17.34681244 38.73258549 38.78436621 38.73258549h77.67229629c21.41166341 0 38.78436622-17.34681244 38.78436743-38.73258549v-77.56873243c0-21.38577184-17.34681244-38.73258549-38.78436743-38.73258549z m0 310.17136947h-77.67229629c-21.41166341 0-38.78436622 17.34681244-38.78436621 38.7325855v77.56873364c0 21.38577184 17.34681244 38.73258549 38.78436621 38.73258428h77.67229629c21.41166341 0 38.78436622-17.34681244 38.78436743-38.73258428v-77.56873364c0-21.38577184-17.34681244-38.73258549-38.78436743-38.7325855z m155.24102995-504.04142102h465.82665125a38.75847585 38.75847585 0 1 0 0-77.46516977H395.33621097a38.75847585 38.75847585 0 1 0 0 77.46516977z m465.82665125 232.60263704H395.33621097a38.75847585 38.75847585 0 1 0 0 77.46516978h465.82665125a38.75847585 38.75847585 0 1 0 0-77.46516978z m0 310.17136948H395.33621097a38.75847585 38.75847585 0 1 0 0 77.46516977h465.82665125a38.75847585 38.75847585 0 1 0 0-77.46516977z" fill="#000000" p-id="2408"></path></svg>