<?xml version="1.0" standalone="no"?><!DOCTYPE svg PUBLIC "-//W3C//DTD SVG 1.1//EN" "http://www.w3.org/Graphics/SVG/1.1/DTD/svg11.dtd"><svg t="1624621140057" class="icon" viewBox="0 0 1024 1024" version="1.1" xmlns="http://www.w3.org/2000/svg" p-id="8605" xmlns:xlink="http://www.w3.org/1999/xlink" width="200" height="200"><defs><style type="text/css"></style></defs><path d="M945.230769 354.092308v-0.738462c0-0.492308 0-1.107692-0.123077-1.6v-0.738461c0-0.615385-0.123077-1.353846-0.246154-1.969231v-0.246154c-0.246154-1.6-0.615385-3.2-0.984615-4.8v-0.123077c-0.246154-0.738462-0.492308-1.476923-0.738461-2.338461-0.492308-1.6-1.230769-3.076923-1.969231-4.676924l-118.153846-236.307692C816.369231 87.138462 802.707692 78.769231 787.692308 78.769231H236.307692c-14.892308 0-28.553846 8.369231-35.2 21.784615l-118.153846 236.307692c-0.738462 1.476923-1.353846 3.076923-1.969231 4.676924-0.246154 0.738462-0.492308 1.476923-0.738461 2.338461v0.123077c-0.492308 1.6-0.738462 3.2-0.984616 4.8v0.246154c-0.123077 0.615385-0.123077 1.353846-0.246153 1.969231v0.738461c0 0.492308 0 1.107692-0.123077 1.6V945.230769c0 21.784615 17.6 39.384615 39.384615 39.384616H433.230769c21.784615 0 39.384615-17.6 39.384616-39.384616s-17.6-39.384615-39.384616-39.384615H157.538462V393.846154h708.923076v78.769231c0 21.784615 17.6 39.384615 39.384616 39.384615s39.384615-17.6 39.384615-39.384615v-118.153847-0.36923zM260.676923 157.538462H472.615385v157.538461H181.907692l78.769231-157.538461zM551.384615 315.076923V157.538462h211.938462l78.769231 157.538461H551.384615z m382.276923 579.2c15.384615-15.384615 15.384615-40.369231 0-55.753846-7.384615-7.384615-17.353846-11.569231-27.815384-11.569231H551.384615c-21.784615 0-39.384615 17.6-39.384615 39.384616s17.6 39.384615 39.384615 39.384615h259.446154l-11.569231 11.569231c-15.384615 15.384615-15.384615 40.369231 0 55.753846s40.369231 15.384615 55.753847 0l78.646153-78.769231zM630.153846 551.384615c-10.461538 0-20.430769 4.184615-27.815384 11.569231l-78.769231 78.769231c-15.384615 15.384615-15.384615 40.369231 0 55.753846 7.384615 7.384615 17.353846 11.569231 27.815384 11.569231h354.461539c21.784615 0 39.384615-17.6 39.384615-39.384616s-17.6-39.384615-39.384615-39.384615H646.4l11.569231-11.569231c15.384615-15.384615 15.384615-40.369231 0-55.753846-7.384615-7.384615-17.353846-11.569231-27.815385-11.569231z" p-id="8606"></path></svg>