<?xml version="1.0" standalone="no"?><!DOCTYPE svg PUBLIC "-//W3C//DTD SVG 1.1//EN" "http://www.w3.org/Graphics/SVG/1.1/DTD/svg11.dtd"><svg t="1624537588720" class="icon" viewBox="0 0 1024 1024" version="1.1" xmlns="http://www.w3.org/2000/svg" p-id="5976" xmlns:xlink="http://www.w3.org/1999/xlink" width="200" height="200"><defs><style type="text/css"></style></defs><path d="M551.36 0c43.392 0 78.72 35.456 78.72 78.72v315.072h315.008a79.36 79.36 0 0 1 78.784 78.784v472.576A79.36 79.36 0 0 1 945.152 1024H472.512a79.36 79.36 0 0 1-78.72-78.848V630.208H78.784C35.328 630.208 0 594.752 0 551.424V78.912C0 35.392 35.456 0.128 78.848 0.128V0h472.512z m393.728 472.576H630.08v78.72c0 43.456-35.456 78.72-78.848 78.72h-78.72v315.072h472.576V472.576zM309.12 935.04l-0.384 0.064c-106.24-19.072-199.104-94.848-249.664-209.408C54.848 713.088 44.48 704 32.32 704H29.312c-12.928 0-23.488 10.24-27.2 24-0.768 2.432-0.96 4.928-1.28 7.552 0 0.832-0.448 1.536-0.448 2.432v1.728c0 1.728-0.192 3.264 0 5.056v163.456c0 18.688 12.992 33.92 28.928 33.92h3.008c15.872 0 28.8-15.232 28.8-33.92v-52.672c60.864 80.64 143.68 132.544 234.944 150.016a30.464 30.464 0 0 0 13.824 2.048H310.464v-0.064c17.088-0.384 30.144-15.36 30.144-35.52a40.512 40.512 0 0 0-9.216-26.176 29.312 29.312 0 0 0-22.272-10.816zM976.256 67.904h-3.008c-16.384 0.064-29.632 15.104-29.632 33.664v52.48C883.52 75.52 801.856 23.552 711.232 4.032a28.608 28.608 0 0 0-11.392-3.2c-0.832-0.128-1.664-0.512-2.496-0.704v0.256c-17.536 0.256-31.68 16.448-31.744 36.288 0 19.968 14.144 36.16 31.68 36.352v0.256c106.24 22.08 198.016 97.728 247.68 210.24 2.752 6.208 7.04 10.432 11.904 13.824 4.8 3.712 10.176 6.4 16.384 6.4h3.072c16.32 0 29.568-15.04 29.568-33.6V101.632c0-18.56-13.248-33.6-29.568-33.664h-0.064z" fill="#000000" p-id="5977"></path></svg>