<?xml version="1.0" standalone="no"?><!DOCTYPE svg PUBLIC "-//W3C//DTD SVG 1.1//EN" "http://www.w3.org/Graphics/SVG/1.1/DTD/svg11.dtd"><svg t="1624081727664" class="icon" viewBox="0 0 1024 1024" version="1.1" xmlns="http://www.w3.org/2000/svg" p-id="3029" xmlns:xlink="http://www.w3.org/1999/xlink" width="200" height="200"><defs><style type="text/css"></style></defs><path d="M916.906667 201.813333L725.333333 92.586667a42.666667 42.666667 0 0 0-42.666666 0l-170.666667 97.28-170.666667-97.28a42.666667 42.666667 0 0 0-42.666666 0L107.093333 201.813333A42.666667 42.666667 0 0 0 85.333333 238.933333v218.453334a42.666667 42.666667 0 0 0 21.76 37.12l170.666667 96.853333v193.706667a42.666667 42.666667 0 0 0 21.76 37.12l192 109.226666a42.666667 42.666667 0 0 0 42.666667 0L725.333333 822.186667a42.666667 42.666667 0 0 0 21.76-37.12v-193.706667l170.666667-96.853333a42.666667 42.666667 0 0 0 21.76-37.12V238.933333a42.666667 42.666667 0 0 0-22.613333-37.12zM170.666667 432.64v-170.666667l149.333333-85.333333 149.333333 85.333333v170.666667l-149.333333 85.333333z m490.666666 327.68l-149.333333 85.333333-149.333333-85.333333v-170.666667l149.333333-85.333333 149.333333 85.333333z m192-327.68l-149.333333 85.333333-149.333333-85.333333v-170.666667l149.333333-85.333333 149.333333 85.333333z" p-id="3030"></path></svg>