<?xml version="1.0" standalone="no"?><!DOCTYPE svg PUBLIC "-//W3C//DTD SVG 1.1//EN" "http://www.w3.org/Graphics/SVG/1.1/DTD/svg11.dtd"><svg t="1624084541112" class="icon" viewBox="0 0 1024 1024" version="1.1" xmlns="http://www.w3.org/2000/svg" p-id="7982" xmlns:xlink="http://www.w3.org/1999/xlink" width="200" height="200"><defs><style type="text/css"></style></defs><path d="M513 63.9c-165.9 0-310.8 90.3-388.2 224.4-33.6 3.7-59.7 32.1-59.7 66.7 0 15.9 5.6 30.6 14.8 42.1-9.7 36.6-14.8 75-14.8 114.7 0 247.3 200.5 447.8 447.8 447.8s447.8-200.5 447.8-447.8S760.3 63.9 513 63.9z m0 850.9c-222.6 0-403.1-180.5-403.1-403.1 0-31.2 3.5-61.5 10.2-90.7 3.9 0.7 8 1.1 12.1 1.1 37.1 0 67.2-30.1 67.2-67.2 0-23-11.6-43.3-29.3-55.4C241.3 185 368.2 108.7 513 108.7c103.2 0 197.4 38.8 268.7 102.7l-95.2 95.2C639.7 266.9 579.1 243 513 243c-148.4 0-268.7 120.3-268.7 268.7S364.6 780.4 513 780.4c61.9 0 118.8-20.9 164.3-56.1 10.7 7.1 23.5 11.3 37.3 11.3 37.1 0 67.2-30.1 67.2-67.2 0-19.8-8.5-37.5-22.1-49.8 14.2-32.8 22.1-68.9 22.1-106.9 0-66.1-23.9-126.7-63.5-173.5l95.2-95.2C877.2 314.3 916 408.5 916 511.7c0 222.6-180.4 403.1-403 403.1z m205.2-313.4c-1.2-0.1-2.5-0.1-3.7-0.1-37.1 0-67.2 30.1-67.2 67.2 0 7 1.1 13.7 3 20.1-37.9 29.5-85.6 47.1-137.4 47.1-123.7 0-223.9-100.3-223.9-223.9s100.3-224 224-224c53.8 0 103.1 19 141.7 50.6l-96.2 96.2c-13.3-7.9-28.9-12.4-45.5-12.4-49.5 0-89.6 40.1-89.6 89.6 0 49.5 40.1 89.6 89.6 89.6s89.6-40.1 89.6-89.6c0-16.6-4.5-32.2-12.4-45.5l96.2-96.2c31.6 38.6 50.5 87.9 50.5 141.7 0 31.8-6.7 62.1-18.7 89.6z" p-id="7983"></path></svg>