<?xml version="1.0" standalone="no"?><!DOCTYPE svg PUBLIC "-//W3C//DTD SVG 1.1//EN" "http://www.w3.org/Graphics/SVG/1.1/DTD/svg11.dtd"><svg t="1624083804921" class="icon" viewBox="0 0 1024 1024" version="1.1" xmlns="http://www.w3.org/2000/svg" p-id="3166" xmlns:xlink="http://www.w3.org/1999/xlink" width="200" height="200"><defs><style type="text/css"></style></defs><path d="M552.81 567.21c0 59.85 48.52 108.37 108.37 108.37s108.37-48.52 108.37-108.37-48.52-108.37-108.37-108.37-108.37 48.52-108.37 108.37z m-213.6-280.29c-0.37 28.99 14.89 55.94 39.94 70.54s56.02 14.6 81.07 0 40.31-41.55 39.94-70.54c-0.56-44.05-36.42-79.46-80.47-79.46s-79.92 35.42-80.48 79.46zM235.87 556.16c0 34.77 18.55 66.9 48.66 84.28a97.342 97.342 0 0 0 97.32 0c30.11-17.38 48.66-49.51 48.66-84.28 0-53.75-43.57-97.32-97.32-97.32s-97.32 43.57-97.32 97.32z m227.14 191.33c0 22.65 18.36 41.01 41.01 41.01s41.01-18.36 41.01-41.01-18.36-41.01-41.01-41.01-41.01 18.36-41.01 41.01z m170.92-403.78c0 24.46 19.83 44.28 44.28 44.28 24.46 0 44.28-19.83 44.28-44.28 0-24.46-19.83-44.28-44.28-44.28-24.46 0-44.28 19.82-44.28 44.28zM479.5 455.25a37.503 37.503 0 0 0 18.47 33.31 37.538 37.538 0 0 0 38.09 0 37.544 37.544 0 0 0 18.47-33.31c-0.53-20.33-17.17-36.54-37.51-36.54s-36.99 16.2-37.52 36.54z" p-id="3167"></path><path d="M509.5 959.55C262.75 959.55 62 758.79 62 512.05s200.76-447.5 447.5-447.5S957 265.31 957 512.05s-200.76 447.5-447.5 447.5z m0-802.05c-195.5 0-354.55 159.06-354.55 354.55 0 195.51 159.06 354.58 354.55 354.58 195.51 0 354.58-159.07 354.58-354.58 0-195.5-159.07-354.55-354.58-354.55z" p-id="3168"></path></svg>