<?xml version="1.0" standalone="no"?><!DOCTYPE svg PUBLIC "-//W3C//DTD SVG 1.1//EN" "http://www.w3.org/Graphics/SVG/1.1/DTD/svg11.dtd"><svg t="1624086688433" class="icon" viewBox="0 0 1024 1024" version="1.1" xmlns="http://www.w3.org/2000/svg" p-id="13495" xmlns:xlink="http://www.w3.org/1999/xlink" width="200" height="200"><defs><style type="text/css"></style></defs><path d="M512 512m-512 0a512 512 0 1 0 1024 0 512 512 0 1 0-1024 0Z" fill="#FAB431" p-id="13496"></path><path d="M784 616.544l-133.92-80.352 15.36-63.648 57.184 33.76V390.08l-183.68-109.504v252.8l-43.68 24.16 241.216 143.04L512 832l-272-159.296v-318.56L512 192l272 162.144v262.4zM301.376 390.08v207.296l176.576-102.4V284.8l-176.576 105.248z m131.104 203.008l-100.416 61.408L512 759.84l101.6-59.52-181.12-107.264z" fill="#FFFFFF" p-id="13497"></path></svg>