<?xml version="1.0" standalone="no"?><!DOCTYPE svg PUBLIC "-//W3C//DTD SVG 1.1//EN" "http://www.w3.org/Graphics/SVG/1.1/DTD/svg11.dtd"><svg t="1624086407759" class="icon" viewBox="0 0 1024 1024" version="1.1" xmlns="http://www.w3.org/2000/svg" p-id="2189" xmlns:xlink="http://www.w3.org/1999/xlink" width="200" height="200"><defs><style type="text/css"></style></defs><path d="M511.300546 896.299766c278.782201 0 384.699454-142.288837 384.699454-354.722873s-172.265418-414.676034-384.699454-414.676034-384.699454 202.241998-384.699453 414.676034 105.917252 354.722873 384.699453 354.722873z" fill="#F9EA6D" p-id="2190"></path><path d="M511.300546 911.288056c-69.545667 0-130.997658-8.893052-182.557377-26.379391-50.06089-16.986729-92.128025-42.466823-125.002342-75.840749-61.152225-61.9516-92.128025-151.981265-92.128025-267.590945 0-106.716628 42.466823-215.032006 116.508978-297.067916 36.971116-40.967994 79.737705-73.342701 126.900859-96.224824 49.960968-24.181109 102.519906-36.371585 156.277907-36.371585s106.31694 12.290398 156.277908 36.371585c47.163154 22.882123 89.82982 55.156909 126.900859 96.224824 74.042155 82.035909 116.508977 190.351288 116.508977 297.067916 0 115.60968-30.9758 205.639344-92.128025 267.590945-32.874317 33.373927-74.941452 58.85402-125.002342 75.840749-51.559719 17.486339-113.01171 26.379391-182.557377 26.379391z m0-769.398907c-49.261514 0-97.423888 11.291179-143.188134 33.373927-43.665886 21.18345-83.234973 51.160031-117.70804 89.33021-69.14598 76.640125-108.814988 177.56128-108.814989 276.983607 0 107.416081 28.078064 190.351288 83.434817 246.507416 29.576893 29.976581 67.747073 53.058548 113.311475 68.446526 48.462139 16.387198 106.616706 24.78064 172.86495 24.78064s124.502732-8.293521 172.864949-24.78064c45.564403-15.4879 83.734582-38.469945 113.311475-68.446526 55.356753-56.156128 83.434817-139.091335 83.434817-246.507416 0-99.422326-39.669009-200.343482-108.814989-276.983607-34.373146-38.070258-74.042155-68.14676-117.70804-89.33021-45.564403-22.18267-93.726776-33.373927-142.988291-33.373927z" fill="#525252" p-id="2191"></path><path d="M507.203747 162.273224c-40.168618-26.379391 5.795472-38.869633-7.394223-69.845433-12.290398-30.576112-36.771272-36.171741-55.456675-25.380172-18.08587 10.491803-29.876659 35.871975-15.288056 61.152225 14.488681 24.980484 52.958626 46.263856 78.138954 34.07338z" fill="#E76950" p-id="2192"></path><path d="M490.81655 174.763466c-9.592506 0-19.984387-2.498048-30.476191-7.494145-16.387198-7.793911-30.9758-20.683841-39.069477-34.672912-7.893833-13.689305-9.892272-29.077283-5.395784-43.266198 3.996877-12.590164 12.690086-23.581577 23.981264-30.076503 11.590945-6.69477 24.480874-8.093677 36.371585-3.996877 9.692428 3.297424 23.081967 11.89071 31.875097 33.673692 7.194379 16.986729 0.49961 29.976581-4.396565 39.469165-2.59797 4.996097-4.796253 9.29274-4.396565 12.590164 0.599532 4.796253 7.294301 10.092116 12.790008 13.689305l13.289617 8.693208-14.288836 6.894614c-6.095238 2.997658-12.989852 4.496487-20.284153 4.496487zM462.638564 70.944575c-4.596409 0-9.29274 1.298985-13.789228 3.896955-7.494145 4.296643-13.189696 11.590945-15.887587 19.884465-2.098361 6.594848-3.09758 16.986729 3.797033 28.87744 9.592506 16.587041 31.675254 31.375488 50.5605 33.074161-10.991413-14.188915-4.596409-26.779079 0.399688-36.471507 4.796253-9.29274 7.494145-15.4879 3.797033-24.28103l-0.099922-0.199844c-4.996097-12.290398-12.290398-20.483997-21.083528-23.481655-2.398126-0.899297-5.096019-1.298985-7.693989-1.298985z" fill="#525252" p-id="2193"></path><path d="M217.430133 176.861827c-22.982045-53.957845 23.981265-35.971897 28.977361-80.936768s-23.981265-60.952381-51.959407-60.952381c-26.579235 0-53.957845 20.084309-53.957845 57.954722 0 37.17096 28.078064 83.934426 76.939891 83.934427z m-96.924278-161.873537h146.485558v181.857924H120.505855v-181.857924z" fill="#FFFFFF" p-id="2194"></path><path d="M530.285714 176.861827c-22.982045-53.957845 23.981265-35.971897 28.977362-80.936768s-23.981265-60.952381-51.959407-60.952381c-26.579235 0-53.957845 20.084309-53.957845 57.954722 0 37.17096 28.078064 83.934426 76.93989 83.934427z" fill="#FE7C58" p-id="2195"></path><path d="M543.875098 185.854801h-13.589384c-24.880562 0-47.562842-11.191257-63.850117-31.375488-13.889149-17.286495-22.082748-40.26854-22.082748-61.551913 0-13.989071 3.397346-33.973458 19.784544-49.661202 11.491023-10.991413 27.178767-17.286495 43.166276-17.286495 19.584699 0 36.371585 6.794692 47.362998 18.985168 11.391101 12.690086 15.887588 30.176425 13.489461 51.859485-2.59797 23.181889-15.188134 32.874317-24.28103 39.968774-5.69555 4.396565-8.992974 7.094457-10.29196 11.091335-1.698673 5.195941 0 13.789227 4.896175 25.380172l5.395785 12.590164z m-36.571429-141.889149c-22.382514 0-44.964871 16.786885-44.964871 48.961748 0 28.177986 18.985168 65.948478 54.757221 73.542545-2.59797-9.592506-2.697892-17.386417-0.599532-24.081186 3.09758-9.492584 10.092116-14.888368 16.387198-19.684622 8.393443-6.494926 15.687744-12.190476 17.486338-27.778298 1.798595-16.487119-1.199063-29.177205-8.992974-37.970335-10.192037-11.291179-25.679938-12.989852-34.07338-12.989852z" fill="#525252" p-id="2196"></path><path d="M503.506635 683.765808L452.046838 618.31694c-3.397346-4.296643-2.697892-10.591725 1.698673-13.989071 0.49961-0.399688 1.099141-0.799375 1.698673-1.099141l51.459797-25.480094c2.797814-1.398907 6.095238-1.398907 8.893053 0l51.459797 25.480094c4.896175 2.498048 6.994536 8.393443 4.496487 13.389539-0.299766 0.599532-0.699454 1.199063-1.099142 1.698673l-51.459797 65.448868c-3.397346 4.296643-9.692428 5.096019-13.989071 1.698673-0.699454-0.49961-1.199063-1.099141-1.698673-1.698673z" fill="#DA6E56" p-id="2197"></path><path d="M511.300546 695.556596c-3.896956 0-7.793911-1.298985-11.091334-3.797033-1.099141-0.899297-2.098361-1.898517-2.997659-2.997658L445.751756 623.313037c-2.997658-3.797034-4.296643-8.493365-3.697111-13.289618 0.599532-4.796253 2.997658-8.992974 6.69477-11.990632 0.999219-0.799375 1.998439-1.398907 3.09758-1.998439l51.459797-25.480094c4.996097-2.498048 10.991413-2.498048 15.987509 0l51.459797 25.480094c8.893052 4.396565 12.490242 15.188134 8.093677 24.081187-0.599532 1.099141-1.199063 2.198283-1.998439 3.09758l-51.459797 65.448868c-3.497268 4.596409-8.79313 6.894614-14.088993 6.894613z m0-110.813427c-0.299766 0-0.599532 0.099922-0.899297 0.199844l-51.459797 25.480094c-0.099922 0.099922-0.199844 0.099922-0.299766 0.199844-0.49961 0.399688-0.699454 0.999219-0.799375 1.298985 0 0.399688 0 0.899297 0.399687 1.498829l51.459797 65.448868 0.299766 0.299766c0.899297 0.699454 2.098361 0.49961 2.797814-0.299766l51.459798-65.448868c0.099922-0.099922 0.199844-0.199844 0.199843-0.299766 0.299766-0.599532 0.199844-1.199063 0.099922-1.498829-0.099922-0.399688-0.399688-0.799375-0.999219-1.199063l-51.459797-25.480094c-0.199844-0.199844-0.49961-0.199844-0.799376-0.199844z" fill="#525252" p-id="2198"></path><path d="M506.903981 577.748634c2.797814-1.398907 6.095238-1.398907 8.893053 0l51.459797 25.480094c4.896175 2.498048 6.994536 8.393443 4.496487 13.389539-0.299766 0.599532-0.699454 1.199063-1.099142 1.698673l-51.459797 65.448868c-2.298205 2.897736-4.996097 4.296643-8.29352 4.296643" fill="#AE5844" p-id="2199"></path><path d="M510.900859 696.056206v-15.98751c0.399688 0 0.999219 0 1.998438-1.298985l51.459797-65.448868c0.099922-0.099922 0.199844-0.199844 0.199844-0.299766 0.49961-0.999219 0.099922-2.198283-0.899297-2.697892l-51.459797-25.480094c-0.599532-0.299766-1.199063-0.299766-1.798595 0l-7.094457-14.288837c4.996097-2.498048 10.991413-2.498048 15.987509 0l51.459797 25.480094c8.893052 4.396565 12.490242 15.188134 8.093677 24.081187-0.49961 1.099141-1.199063 2.198283-1.998439 3.09758l-51.459797 65.448868c-3.697112 4.896175-8.79313 7.394223-14.48868 7.394223z" fill="#525252" p-id="2200"></path><path d="M519.094457 540.078064l51.259954 62.850898c3.497268 4.296643 2.897736 10.591725-1.398907 14.088993-0.599532 0.49961-1.199063 0.899297-1.898517 1.199063l-51.259953 25.380172c-2.797814 1.398907-6.095238 1.398907-8.893053 0l-51.259953-25.380172c-4.896175-2.498048-6.994536-8.393443-4.496487-13.389539 0.299766-0.699454 0.699454-1.298985 1.199063-1.898517l51.259953-62.850898c3.497268-4.296643 9.79235-4.896175 14.088993-1.398907 0.49961 0.399688 0.999219 0.899297 1.398907 1.398907z" fill="#FE8757" p-id="2201"></path><path d="M511.300546 652.590164c-2.697892 0-5.495706-0.599532-7.993754-1.898517L452.046838 625.311475c-4.296643-2.098361-7.494145-5.795472-9.092896-10.391881-1.498829-4.596409-1.199063-9.392662 0.899298-13.689305 0.599532-1.199063 1.298985-2.298205 2.198282-3.397346l51.259953-62.850898c6.295082-7.693989 17.586261-8.79313 25.28025-2.59797 0.899297 0.799375 1.798595 1.598751 2.597971 2.59797l51.259953 62.850898c2.997658 3.697112 4.396565 8.393443 3.996877 13.189696-0.49961 4.796253-2.797814 9.092896-6.494926 12.090554-0.999219 0.899297-2.198283 1.598751-3.397346 2.198282l-51.259953 25.380172c-2.498048 1.298985-5.195941 1.898517-7.993755 1.898517z m0-108.215457c-0.599532 0-1.199063 0.299766-1.598751 0.699454l-51.259953 62.850898c-0.099922 0.099922-0.199844 0.199844-0.199844 0.399687-0.299766 0.599532-0.199844 1.199063-0.099921 1.498829 0.099922 0.399688 0.399688 0.799375 0.999219 1.199064l51.259953 25.380171c0.599532 0.299766 1.199063 0.299766 1.798595 0l51.259953-25.380171c0.099922-0.099922 0.299766-0.099922 0.399688-0.199844 0.49961-0.399688 0.699454-0.999219 0.699453-1.298985s0-0.899297-0.399687-1.49883l-51.259954-62.850897-0.299765-0.299766c-0.399688-0.299766-0.799375-0.49961-1.298986-0.49961z" fill="#525252" p-id="2202"></path><path d="M509.801717 536.680718h3.896956c0.299766 0.299766 19.284934 22.382514 56.655738 66.248244 3.497268 4.296643 2.897736 10.591725-1.398907 14.088993-0.599532 0.49961-1.199063 0.899297-1.898517 1.199063l-57.25527 25.380172h-1.398907" fill="#ED7C54" p-id="2203"></path><path d="M511.50039 651.590945h-3.09758V640.299766l-1.798595-4.0968 57.055426-25.280249c0.099922-0.099922 0.199844-0.099922 0.299766-0.199844 0.49961-0.399688 0.699454-0.999219 0.699453-1.298985 0-0.399688 0-0.899297-0.399687-1.398908-35.272443-41.26776-49.261514-57.754879-54.15769-63.350507h-0.299766v-0.299766c-1.199063-1.298985-1.698673-1.998439-1.898516-2.198282 0.099922 0.099922 0.299766 0.399688 0.799375 0.699453l1.199063-1.398907v-12.790008h6.69477l2.198283 1.798595c0.799375 0.699454 1.099141 0.899297 57.754879 67.247463l0.099922 0.099922c2.997658 3.697112 4.396565 8.393443 3.996877 13.189696-0.49961 4.796253-2.797814 9.092896-6.494926 12.090554-0.999219 0.899297-2.198283 1.598751-3.397346 2.198282l-0.299765 0.099922-58.953943 26.179548z" fill="#525252" p-id="2204"></path><path d="M248.905543 827.953162c75.740827-48.462139 165.870414-76.640125 262.494925-76.640125s186.654176 28.078064 262.494926 76.640125c-60.952381 43.765808-146.785324 68.246682-262.494926 68.246682s-201.642467-24.380952-262.494925-68.246682z" fill="#FFFDD2" p-id="2205"></path><path d="M511.300546 905.29274c-113.111632 0-203.141296-23.581577-267.690866-69.945355l-10.791569-7.693989 11.191257-7.094458c79.737705-51.060109 172.165496-78.039032 267.291178-78.039032s187.553474 26.978923 267.291179 78.039032l11.191257 7.094458-10.791569 7.693989c-64.549571 46.363778-154.579235 69.945355-267.690867 69.945355z m-245.907884-76.939891c60.552693 39.169399 143.288056 58.953942 246.007806 58.953943 102.71975 0 185.355191-19.784543 246.007807-58.953943-74.142077-44.465262-158.875878-67.946916-246.007807-67.946916s-171.86573 23.481655-246.007806 67.946916z" fill="#525252" p-id="2206"></path><path d="M361.417642 446.651054m-83.934426 0a83.934426 83.934426 0 1 0 167.868853 0 83.934426 83.934426 0 1 0-167.868853 0Z" fill="#FFFFFF" p-id="2207"></path><path d="M661.18345 446.651054m-83.934426 0a83.934426 83.934426 0 1 0 167.868853 0 83.934426 83.934426 0 1 0-167.868853 0Z" fill="#FFFFFF" p-id="2208"></path><path d="M361.417642 539.578454c-51.259953 0-92.9274-41.667447-92.9274-92.9274s41.667447-92.9274 92.9274-92.927401 92.9274 41.667447 92.927401 92.927401-41.667447 92.9274-92.927401 92.9274z m0-167.868852c-41.367681 0-74.941452 33.57377-74.941452 74.941452s33.57377 74.941452 74.941452 74.941452 74.941452-33.57377 74.941452-74.941452-33.57377-74.941452-74.941452-74.941452zM661.18345 539.578454c-51.259953 0-92.9274-41.667447-92.9274-92.9274s41.667447-92.9274 92.9274-92.927401 92.9274 41.667447 92.927401 92.927401-41.667447 92.9274-92.927401 92.9274z m0-167.868852c-41.367681 0-74.941452 33.57377-74.941452 74.941452s33.57377 74.941452 74.941452 74.941452 74.941452-33.57377 74.941452-74.941452-33.57377-74.941452-74.941452-74.941452z" fill="#525252" p-id="2209"></path><path d="M361.417642 446.651054m-24.980484 0a24.980484 24.980484 0 1 0 49.960968 0 24.980484 24.980484 0 1 0-49.960968 0Z" fill="#525252" p-id="2210"></path><path d="M661.18345 446.651054m-24.980484 0a24.980484 24.980484 0 1 0 49.960968 0 24.980484 24.980484 0 1 0-49.960968 0Z" fill="#525252" p-id="2211"></path></svg>