<?xml version="1.0" standalone="no"?><!DOCTYPE svg PUBLIC "-//W3C//DTD SVG 1.1//EN" "http://www.w3.org/Graphics/SVG/1.1/DTD/svg11.dtd"><svg t="1624089311369" class="icon" viewBox="0 0 1024 1024" version="1.1" xmlns="http://www.w3.org/2000/svg" p-id="27807" xmlns:xlink="http://www.w3.org/1999/xlink" width="200" height="200"><defs><style type="text/css"></style></defs><path d="M480.897396 231.191273l427.892364 133.957818 58.042182 18.152727a71.447273 71.447273 0 0 1 38.4 107.333818l-313.437091 478.347637c-19.083636 29.090909-56.32 40.261818-88.203636 26.391272-353.559273-153.413818-537.6-234.728727-552.261819-243.944727-23.04-14.522182-102.074182-105.146182 0-248.040727C113.793396 416.023273 226.154124 328.285091 388.59776 240.174545c28.299636-15.36 61.579636-18.618182 92.346182-8.983272z" fill="#8067B7" p-id="27808"></path><path d="M485.133033 42.635636l451.630545 141.358546a71.447273 71.447273 0 0 1 38.632727 106.914909l-305.338181 473.227636a71.447273 71.447273 0 0 1-88.017455 26.996364L20.609396 551.889455 352.664669 87.04a119.063273 119.063273 0 0 1 132.468364-44.404364z" fill="#836BB6" p-id="27809"></path><path d="M68.644305 629.154909a70.516364 70.516364 0 0 1 92.625455-38.632727l430.312727 180.456727c31.976727 13.405091 68.887273 1.954909 87.691637-27.136l282.437818-437.992727c7.633455-10.612364 12.660364-16.709818 15.173818-18.245818 4.375273-2.699636 6.749091 0.325818 8.005818 6.609454 2.327273 11.729455 0.930909 47.150545-4.282182 106.263273L704.455215 874.123636a95.278545 95.278545 0 0 1-117.853091 40.401455l-478.487273-192.465455a71.354182 71.354182 0 0 1-39.470546-92.904727z" fill="#ECEFED" p-id="27810"></path><path d="M451.015215 495.988364a26.298182 26.298182 0 0 0 19.921454 1.954909c6.144-2.048 9.867636-8.098909 11.170909-18.152728l25.274182-241.710545a21.969455 21.969455 0 0 0-2.792727-13.312 27.461818 27.461818 0 0 0-13.405091-11.496727 27.461818 27.461818 0 0 0-17.361455-2.792728 21.969455 21.969455 0 0 0-12.008727 6.330182L293.87776 391.168c-7.633455 7.959273-10.24 14.894545-7.773091 20.759273a26.763636 26.763636 0 0 0 14.336 13.870545c7.168 3.304727 13.358545 4.189091 18.618182 2.56a36.770909 36.770909 0 0 0 14.801454-9.309091l33.69891-32.581818 70.097454 32.674909-2.746182 49.152c-0.279273 5.492364 0.465455 10.705455 2.373818 15.639273 1.908364 4.933818 6.516364 8.983273 13.73091 12.101818z m-3.444364-119.714909L394.415942 351.418182l66.513454-73.262546-13.358545 98.071273z m195.863273 206.196363c8.098909 3.723636 18.152727 6.516364 30.208 8.331637l11.869091-28.57891a46.08 46.08 0 0 1-6.888728-2.373818c-9.309091-4.328727-10.612364-13.777455-3.863272-28.253091l38.213818-81.966545c18.013091-38.539636 2.792727-69.12-45.707637-91.694546-22.109091-10.379636-46.498909-16.523636-73.076363-18.52509l-16.011637 34.443636c24.994909-1.768727 47.243636 1.861818 66.699637 10.984727 21.922909 10.24 28.392727 24.901818 19.456 44.125091l-7.912728 16.896-13.312-6.237091c-30.440727-14.196364-56.413091-19.549091-77.963636-16.151273-21.504 3.444364-37.050182 15.406545-46.545454 35.84-7.354182 15.778909-8.285091 30.952727-2.792728 45.568 5.492364 14.615273 16.337455 25.693091 32.581818 33.233455 18.944 8.843636 40.494545 9.122909 64.698182 0.791273l2.141091 1.024c-1.629091 18.804364 7.773091 33.000727 28.206546 42.542545z m-61.719273-70.097454a25.925818 25.925818 0 0 1-14.056727-15.034182 25.925818 25.925818 0 0 1 1.070545-20.526546c9.448727-20.247273 30.254545-22.853818 62.557091-7.819636l11.776 5.538909-17.501091 37.562182c-17.547636 5.678545-32.162909 5.771636-43.845818 0.279273z" fill="#FFFFFF" p-id="27811"></path><path d="M171.556305 664.296727l138.100364 64.418909c1.489455 55.296-14.754909 89.320727-48.733091 102.027637-25.506909 9.588364-33.792-31.930182-59.717818-44.032-25.832727-12.101818-69.352727 5.259636-78.382545-20.386909-12.101818-34.164364 4.189091-68.189091 48.73309-102.027637z" fill="#FC8D70" p-id="27812"></path></svg>