<?xml version="1.0" standalone="no"?><!DOCTYPE svg PUBLIC "-//W3C//DTD SVG 1.1//EN" "http://www.w3.org/Graphics/SVG/1.1/DTD/svg11.dtd"><svg t="1624086404316" class="icon" viewBox="0 0 1024 1024" version="1.1" xmlns="http://www.w3.org/2000/svg" p-id="2030" xmlns:xlink="http://www.w3.org/1999/xlink" width="200" height="200"><defs><style type="text/css"></style></defs><path d="M256.2 212.8c51.9-44.2 117.8-70.6 189.5-70.6 18.7 0 46.6 1.7 64.1 5 17.5-3.3 45.4-5 64.1-5 72.1 0 138.4 26.7 190.3 71.4 4.9-1.7 10.2-3.5 15.9-5.4 62.8-21 110.6-28.1 143.2-21.2 3.2 0.7 5.9 2.9 7.1 5.9 18.1 42.7 0.7 113.5-52.2 212.3-1.8 3.4-3.5 6.7-5.2 9.9 2.1 15.4 3.2 31.1 3.2 47.1 0.1 19.3-1.5 31.3-5 50 31.5 37.6 30 91.9 30 143 0 108.7-90.7 268-391.5 267s-391.4-154.4-391.5-267c0-51.1-1.4-105.4 30-143-3.5-18.7-5.1-30.7-5-50 0-17.5 1.3-34.7 3.9-51.5-0.9-1.8-1.9-3.6-2.9-5.5C91.4 306.4 74 235.6 92 192.9c1.3-3 3.9-5.2 7.1-5.9 32.7-6.9 80.4 0.1 143.2 21.2 5 1.6 9.5 3.1 13.9 4.6z" fill="#E7E7E7" p-id="2031"></path><path d="M512.5 937.2h-2.8c-72.6-0.2-137.4-9.3-192.6-27-49.7-15.9-92-38.9-125.7-68.3-30-26.1-52.8-56.9-68-91.6-13.2-30.1-20.1-63-20.1-95.1v-6.5c0-47.4-0.1-100.7 29.1-140.4-2.8-16.1-4.1-28.2-4-46.1 0-16.3 1.1-32.7 3.3-48.8-0.2-0.4-0.4-0.8-0.6-1.1-55.7-104-72.9-177.6-52.8-225.2 3.2-7.5 9.9-13 17.8-14.7 35.6-7.6 85.1-0.5 151 21.6 2 0.7 4 1.3 5.9 2 25.9-20.9 54.5-37.4 85.1-49 34.4-13.1 70.6-19.7 107.5-19.7 17.8 0 44.9 1.5 64.1 4.8 19.2-3.3 46.3-4.8 64.1-4.8 37.1 0 73.5 6.7 108.1 19.9 30.8 11.8 59.4 28.4 85.4 49.5 2.6-0.9 5.3-1.8 8.1-2.7 66-22.1 115.4-29.2 151-21.6 8 1.7 14.7 7.2 17.8 14.7 20.1 47.5 2.9 121.2-52.8 225.1-1 1.9-2 3.9-3 5.7 1.8 14.6 2.7 29.5 2.7 44.3 0.1 17.8-1.2 30-4 46 29.2 39.7 29.1 93 29.1 140.4v6.5c0 62.9-27.6 126.4-75.6 174.2-33.4 33.3-76.4 59.4-127.6 77.5-57 20.2-124.5 30.4-200.5 30.4z m-407.6-736c-6.7 18-6.3 42.6 1.2 73.2 8.4 34 25.7 75.6 51.4 123.7l0.1 0.2c0.9 1.8 1.9 3.6 2.8 5.4l2.3 4.4-0.7 4.9c-2.5 16.2-3.7 32.7-3.7 49.2-0.1 18.1 1.4 29.2 4.8 47.3l1.3 7-4.5 5.4c-26.6 31.8-26.6 80.1-26.5 126.8v6.6c0 28 6.1 56.7 17.6 83.1 13.3 30.5 33.6 57.8 60.2 81 30.6 26.7 69.4 47.7 115.2 62.4 52.3 16.8 114 25.4 183.5 25.6 73.8 0.2 138.7-9.4 193.2-28.6 47-16.6 86.2-40.3 116.4-70.4 42.4-42.3 66.7-98 66.7-153v-6.6c0-46.7 0.1-95-26.5-126.8l-4.5-5.4 1.3-7c3.4-18.1 4.9-29.2 4.8-47.2 0-15.2-1-30.3-3.1-45.1l-0.7-4.8 2.3-4.3c1.7-3.1 3.4-6.4 5.1-9.7l0.1-0.2c25.7-48.1 43-89.7 51.4-123.7 7.5-30.6 7.9-55.2 1.2-73.2-29.9-5.4-74.5 1.7-132.8 21.2h-0.1c-5.5 1.8-10.7 3.6-15.6 5.2l-8.2 2.9-6.6-5.6c-25.1-21.5-53.1-38.2-83.2-49.8-31.2-11.9-63.9-18-97.4-18-17.9 0-44.7 1.6-61.3 4.7l-2.8 0.5-2.6-0.5c-16.6-3.1-43.4-4.7-61.3-4.7-33.2 0-65.8 6-96.9 17.8-30 11.4-57.9 28-82.9 49.3l-6.5 5.6-8.1-2.8c-4.2-1.5-8.8-3-13.5-4.5h-0.1c-58.3-19.8-102.9-26.9-132.8-21.5z" fill="#525252" p-id="2032"></path><path d="M471.4 677.2H518c28.4 0 51.5 23.1 51.5 51.5v0.7l-0.3 24.3c-0.5 40.8-33.7 73.5-74.5 73.5s-73.9-32.8-74.5-73.5l-0.3-24.3c-0.4-28.4 22.4-51.8 50.8-52.2h0.7z" fill="#FD8570" p-id="2033"></path><path d="M494.7 835.2c-21.8 0-42.4-8.4-57.9-23.8-15.5-15.3-24.3-35.8-24.5-57.6l-0.3-24.3c-0.4-32.8 25.9-59.8 58.7-60.3H518c32.8 0 59.5 26.7 59.5 59.5v0.8l-0.3 24.3c-0.3 21.8-9 42.3-24.5 57.6s-36.1 23.8-58 23.8z m-23.3-150h-0.6c-24 0.3-43.2 20.1-42.9 44.1l0.3 24.3c0.2 17.6 7.3 34.1 19.8 46.4s29.1 19.2 46.7 19.2 34.2-6.8 46.7-19.2c12.5-12.4 19.5-28.9 19.8-46.4l0.3-24.9c0-24-19.5-43.5-43.5-43.5h-46.6z" fill="#525252" p-id="2034"></path><path d="M764.1 213.7c5-1.8 10.4-3.6 16.1-5.4 62.7-21 110.4-28.1 143.1-21.2 3.2 0.7 5.9 2.9 7.1 5.9 18.1 42.7 0.7 113.5-52.2 212.3-0.5 1-1.1 2.1-1.6 3.1 3 17.8 4.6 36.2 4.6 54.9l-5 41c-15.3 6.8-34.3 10-61 10-93.6 0-157.8-8-231-60-75.3-52.1-63.2-107.1-51-164 7.2-34.8 35.1-83.7 50-147 67.5 2.8 130.5 28.7 180.9 70.4z" fill="#ADADAD" p-id="2035"></path><path d="M815.2 523.2c-99 0-162.8-9.5-236.2-61.6-35.8-24.8-56.1-52.8-62-85.8-5.2-29.1 1.1-58.5 7.3-87.1l0.1-0.4c3.4-16.1 10.8-34.7 19.3-56.1 10.6-26.5 22.6-56.5 30.7-91l1.7-7.3 7.4 0.3c34.1 1.5 67.7 8.6 99.8 21.3 29.6 11.7 57.4 27.8 82.5 48 3.7-1.3 7.5-2.5 11.5-3.8 64.8-21.7 113.2-28.8 147.7-21.4 6.1 1.3 11.1 5.5 13.6 11.2 19.4 45.8 2.2 117.7-52.5 220-0.1 0.1-0.1 0.3-0.2 0.4 2.8 17.6 4.2 35.5 4.2 53.4v0.5l-5.7 46.6-4.7 2.1c-16.5 7.4-36.5 10.7-64.5 10.7z m-225-370.6c-8.3 32.7-19.6 61-29.7 86.2-8.3 20.7-15.4 38.5-18.5 53.2l-0.1 0.5c-12.2 56.7-22.7 105.7 47.4 154.3l0.1 0.1c69.5 49.3 130.5 58.3 225.8 58.3 22.4 0 39.3-2.3 52.7-7.3l4.3-35.2c0-17.7-1.5-35.5-4.5-52.9l-0.5-3 1.4-2.7c0.5-1 1.1-2 1.6-3.1l0.1-0.1c51.3-95.9 68.7-164.7 51.8-204.6-0.1-0.3-0.4-0.5-0.7-0.6-30.9-6.5-77.4 0.5-138.3 20.9-5.7 1.9-11.1 3.7-16 5.4l-4.8 1.7-3.9-3.2c-48.9-40.3-106.9-63.7-168.2-67.9z" fill="#525252" p-id="2036"></path><path d="M876.1 519.2c-0.6 0-1.2 0-1.8-0.1-8.2-1-14.1-8.5-13.1-16.7l4.9-40c-0.2-17.9-1.8-35.3-4.8-51.5L860 404l4.3-5.2c0.1-0.2 0.2-0.3 0.3-0.5 0.2-0.3 0.3-0.5 0.5-0.8 25.6-47.9 42.8-89.3 51.1-123.1 7.6-30.7 7.9-55.3 1.1-73.1-29.9-5.5-74.5 1.6-132.7 21.1l-0.3 0.1c-2.2 0.7-4.3 1.3-6.3 2-3.6 1.1-6.9 2.2-10.1 3.1l-7.5 2.1-6.1-4.9c-45.1-36.5-106.5-60.7-166.4-65.9-7.7 30-16.6 56.3-24.5 79.8-7.2 21.2-13.4 39.6-16.5 54.5l-0.1 0.5c-5.9 27.4-11.5 53.4-7.1 77.8 4.8 26.7 21.4 49.1 52.2 70.3 6.8 4.7 8.5 14 3.8 20.9-4.7 6.8-14 8.5-20.9 3.8-83.5-57.7-69.6-122.2-57.4-179.1l0.1-0.4c3.5-16.7 9.9-35.8 17.4-57.9 8.8-26.1 18.8-55.6 26.8-89.4l2.8-12.1 12.4 0.5c68.2 2.9 137 27.7 189.9 68.3 0.6-0.2 1.3-0.4 2-0.6 2-0.6 4.1-1.3 6.3-2 65.8-22.1 115.1-29.1 150.8-21.5 8.2 1.5 15.1 7.2 18.1 15.2 20 47.1 2.9 120.3-52.3 223.7 2.7 16.5 4.1 33.9 4.3 51.8v1l-5.1 42c-0.9 7.6-7.3 13.2-14.8 13.2zM495.2 786.2c-5 0-9-4-9-9v-74c0-5 4-9 9-9s9 4 9 9v74c0 5-4 9-9 9z" fill="#525252" p-id="2037"></path><path d="M578.2 154.2c-2.8 14-5.6 33.9-14 66-18.9 72.7-52.8 153.8 0 201 37.9 33.4 74.1 71.8 104 114 18.7 22.5 30 51.6 30 83 0 72.6-48.4 109-120 109-36.4 0-58.9-4.6-83-28-24.1 23.4-46.6 28-83 28-71.6 0-120-36.4-120-109 0-31.4 11.3-60.5 30-83 29.9-42.2 66.1-80.6 104-114 52.8-47.2 18.9-128.3 0-201-8.4-32.1-14-52-17-66 25.3-6 54-5.7 86 1 28.7-7.3 56.4-7.7 83-1z" fill="#FFFFFF" p-id="2038"></path><path d="M578.2 736.2c-34.6 0-58.8-4.1-83-24.8-24.2 20.7-48.4 24.8-83 24.8-80.8 0-129-44.1-129-118 0-32.2 11.3-63.6 31.9-88.5 28.5-40.1 63.9-78.9 105.2-115.3 18.4-16.4 26.4-38.4 25.1-69-1.2-28.3-10.3-60.4-19.1-91.5-2.9-10.4-6-21.1-8.7-31.5-2.6-10.2-5-19.1-7.1-27-4.6-17.2-7.8-29.6-10-39.3l-1.9-8.6 8.6-2c26-6.2 55.5-6 87.9 0.5 29.3-7.2 58-7.4 85.4-0.5l8.3 2.1-1.8 8.4c-0.7 3.4-1.4 7.2-2.2 11.7-2.4 12.9-5.6 30.5-11.9 54.8-2.7 10.4-5.7 21.1-8.7 31.5-8.8 31-17.9 63.1-19.1 91.5-1.3 30.6 6.7 52.6 25.1 69.1 41.3 36.3 76.7 75.1 105.2 115.2 20.5 24.9 31.9 56.3 31.9 88.5-0.1 73.8-48.3 117.9-129.1 117.9z m-83-49.5l6.3 6.1c22.2 21.6 42.5 25.4 76.7 25.4 34 0 62-8.7 81-25.1 19.9-17.2 30-42.4 30-74.9 0-28.1-9.9-55.5-27.9-77.3l-0.4-0.5c-27.7-39.1-62.2-76.9-102.6-112.4-22.5-20.1-32.7-47.3-31.2-83.3 1.3-30.5 10.7-63.6 19.8-95.6 2.9-10.3 5.9-20.9 8.6-31.1 6.2-23.7 9.3-40.9 11.6-53.5l0.6-3.3c-22.6-4.3-46.2-3.4-70.3 2.8l-2 0.5-2.1-0.4c-26.9-5.6-51.5-6.6-73.3-2.8 1.9 7.9 4.5 17.6 7.7 29.7 2.1 7.9 4.5 16.9 7.1 27.1 2.6 10.2 5.7 20.8 8.6 31.1 9.1 32 18.5 65.2 19.8 95.6 1.5 35.9-8.7 63.2-31.1 83.2-40.4 35.6-75 73.4-102.7 112.5l-0.4 0.5c-18 21.7-27.9 49.2-27.9 77.3 0 32.5 10.1 57.7 30 74.9 19 16.4 47 25.1 81 25.1 34.3 0 54.5-3.8 76.7-25.5l6.4-6.1z" fill="#525252" p-id="2039"></path><path d="M289.2 457.2c-40.8 0-74-33.2-74-74s33.2-74 74-74 74 33.2 74 74-33.2 74-74 74z m0-130c-30.9 0-56 25.1-56 56s25.1 56 56 56 56-25.1 56-56-25.1-56-56-56z" fill="#525252" p-id="2040"></path><path d="M733.2 327.2c35.9 0 65 29.1 65 65s-29.1 65-65 65-65-29.1-65-65 29.1-65 65-65z" fill="#FFFFFF" p-id="2041"></path><path d="M733.2 466.2c-40.8 0-74-33.2-74-74s33.2-74 74-74 74 33.2 74 74-33.2 74-74 74z m0-130c-30.9 0-56 25.1-56 56s25.1 56 56 56 56-25.1 56-56-25.1-56-56-56z" fill="#525252" p-id="2042"></path><path d="M287.2 381.2m-25 0a25 25 0 1 0 50 0 25 25 0 1 0-50 0Z" fill="#525252" p-id="2043"></path><path d="M733.2 392.2m-25 0a25 25 0 1 0 50 0 25 25 0 1 0-50 0Z" fill="#525252" p-id="2044"></path><path d="M538.9 575.2h-87.7c-6.4 0-12.4 3.3-15.9 8.7-5.7 8.8-3.1 20.5 5.7 26.2l36.1 23.2c11 7.1 25.1 7.1 36.1 0l36.1-23.2c5.4-3.5 8.7-9.5 8.7-15.9-0.2-10.5-8.7-19-19.1-19z" fill="#525252" p-id="2045"></path></svg>