<?xml version="1.0" standalone="no"?><!DOCTYPE svg PUBLIC "-//W3C//DTD SVG 1.1//EN" "http://www.w3.org/Graphics/SVG/1.1/DTD/svg11.dtd"><svg t="1624086368411" class="icon" viewBox="0 0 1024 1024" version="1.1" xmlns="http://www.w3.org/2000/svg" p-id="1558" xmlns:xlink="http://www.w3.org/1999/xlink" width="200" height="200"><defs><style type="text/css"></style></defs><path d="M826.8 384.5c48.4 61.4 78.6 135.6 78.6 213.7 0 199.1-194.2 319-394 319-199.2 0-386-124.2-386-331 0-75.4 25.1-143.8 66.4-200.4-21-27.3-33.4-61.5-33.4-98.6 0-89.5 72.5-162 162-162 68 0 126.2 41.9 150.2 101.2 13.5-1.5 27.1-2.2 40.8-2.2 12.4 0 24.9 0.7 37.3 2.1 23.1-61.4 82.3-105.1 151.7-105.1 89.5 0 162 72.5 162 162-0.1 38.3-13.4 73.5-35.6 101.3z" fill="#BDD084" p-id="1559"></path><path d="M511.3 932.2c-51.4 0-101.5-7.9-149-23.4-48.1-15.7-91.2-38.5-128-67.8-38.7-30.7-69-67.4-90-109.1-22.5-44.4-33.9-93.5-33.9-145.8 0-71.3 21.7-140.4 63-200.4-19.7-29.2-30-63.1-30-98.6 0-97.6 79.4-177 177-177 35.9 0 70.5 10.7 100.1 31 25.7 17.6 46.1 41.4 59.5 69.3 10.5-0.8 21-1.3 31.5-1.3 9.1 0 18.4 0.4 27.7 1.1 13-28.8 33.4-53.5 59.4-71.8 29.9-21.1 65.2-32.3 101.9-32.3 97.6 0 177 79.4 177 177 0 36.2-11.2 71.6-31.7 101.2 22.4 30 40.1 62 52.7 95.4 14.6 38.8 22.1 78.7 22.1 118.4 0 50.5-11.9 97.9-35.3 141-21.8 40.1-53 75.5-92.8 105.2-37.8 28.2-81.7 50.1-130.6 65.3-48.5 15-99 22.6-150.6 22.6z m-191-792c-81.1 0-147 65.9-147 147 0 32.7 10.5 63.6 30.3 89.4l6.8 8.9-6.6 9.1c-41.6 56.9-63.5 123.1-63.5 191.6 0 47.5 10.3 92 30.7 132.2 19.1 37.8 46.7 71.1 81.9 99.1 34.1 27.1 74 48.2 118.7 62.8 44.5 14.5 91.5 21.9 139.7 21.9 48.5 0 96.1-7.1 141.4-21.2 45.6-14.1 86.5-34.6 121.5-60.7 36.3-27.1 64.7-59.2 84.4-95.5 21-38.6 31.6-81.2 31.6-126.7 0-71.3-26-142-75.3-204.4l-7.4-9.4 7.5-9.3c21.1-26.3 32.3-58.1 32.3-91.9 0-81.1-65.9-147-147-147-30.5 0-59.8 9.3-84.6 26.8-24.3 17.1-42.7 40.8-53.1 68.6l-4.1 10.9-11.6-1.3c-11.9-1.3-23.9-2-35.7-2-13 0-26.2 0.7-39.2 2.1l-11.3 1.2-4.3-10.5c-10.9-26.8-29.3-49.7-53.2-66.1-24.3-16.7-53-25.6-82.9-25.6z" fill="#525252" p-id="1560"></path><path d="M320.3 203.2c46.4 0 84 37.6 84 84s-37.6 84-84 84-84-37.6-84-84 37.6-84 84-84z" fill="#FFFFFF" p-id="1561"></path><path d="M320.3 380.2c-51.3 0-93-41.7-93-93s41.7-93 93-93 93 41.7 93 93-41.7 93-93 93z m0-168c-41.4 0-75 33.6-75 75s33.6 75 75 75 75-33.6 75-75-33.6-75-75-75z" fill="#525252" p-id="1562"></path><path d="M700.3 199.2c46.4 0 84 37.6 84 84s-37.6 84-84 84-84-37.6-84-84 37.6-84 84-84z" fill="#FFFFFF" p-id="1563"></path><path d="M700.3 376.2c-51.3 0-93-41.7-93-93s41.7-93 93-93 93 41.7 93 93-41.7 93-93 93z m0-168c-41.4 0-75 33.6-75 75s33.6 75 75 75 75-33.6 75-75-33.6-75-75-75z" fill="#525252" p-id="1564"></path><path d="M320.3 287.2m-25 0a25 25 0 1 0 50 0 25 25 0 1 0-50 0Z" fill="#525252" p-id="1565"></path><path d="M700.3 283.2m-25 0a25 25 0 1 0 50 0 25 25 0 1 0-50 0Z" fill="#525252" p-id="1566"></path><path d="M454 607.7c12 6.9 27.2 2.8 34.2-9.2 6.9-12 7.8-35.9-4.2-42.8-12-6.9-32.2 5.9-39.2 17.8-6.9 12-2.8 27.2 9.2 34.2zM568 607.7c12-6.9 16.1-22.2 9.2-34.2-6.9-12-27.2-24.7-39.2-17.8-12 6.9-11.1 30.9-4.2 42.8s22.2 16.1 34.2 9.2z" fill="#525252" p-id="1567"></path><path d="M757 620.6c-3.9-3.1-9.5-2.5-12.7 1.4-55.6 69.4-138.8 109.2-228.3 109.2-47.7 0-93.3-10.9-135.3-32.3-40.1-20.4-75.4-50.2-102.2-86.1-3-4-8.6-4.8-12.6-1.8s-4.8 8.6-1.8 12.6c28.5 38.1 66 69.7 108.5 91.4 44.6 22.7 92.8 34.2 143.4 34.2 94.9 0 183.2-42.3 242.3-116 3.2-3.9 2.5-9.5-1.3-12.6z" fill="#525252" p-id="1568"></path></svg>