<?xml version="1.0" standalone="no"?><!DOCTYPE svg PUBLIC "-//W3C//DTD SVG 1.1//EN" "http://www.w3.org/Graphics/SVG/1.1/DTD/svg11.dtd"><svg t="1624085865651" class="icon" viewBox="0 0 1024 1024" version="1.1" xmlns="http://www.w3.org/2000/svg" p-id="19793" xmlns:xlink="http://www.w3.org/1999/xlink" width="200" height="200"><defs><style type="text/css"></style></defs><path d="M429.16864 376.4224l21.69856-55.66464A423.9872 423.9872 0 0 1 664.14592 91.63776a509.26592 509.26592 0 0 1 313.00608-40.30464L1003.52 56.32a274.5344 274.5344 0 0 0-117.76 225.37216v193.69984a234.9568 234.9568 0 0 1-108.544 198.0416l-4.15744 2.6624c-77.4656 49.44896-178.03264 46.77632-253.44-5.74464-93.85984-65.36192-131.96288-187.35104-90.44992-293.91872z" fill="#FFCC11" p-id="19794"></path><path d="M476.2624 537.6512l-17.01888-43.56096a336.71168 336.71168 0 0 0-169.5744-181.83168 404.43904 404.43904 0 0 0-248.04352-31.87712L20.48 284.37504a217.3952 217.3952 0 0 1 93.46048 178.60608v152.76032c0 63.744 32.5632 123.06432 86.3232 157.30688l3.39968 2.1504c61.3376 39.0656 141.02528 36.864 200.74496-4.62848 74.42432-51.712 104.81664-148.51072 71.84384-232.91904z" fill="#E9B710" p-id="19795"></path><path d="M820.08064 141.76256a30.72 30.72 0 0 1 0.7168 43.43808l-22.14912 22.89664A716.8 716.8 0 0 0 616.6528 873.0112l14.78656 61.93152a30.72 30.72 0 1 1-59.76064 14.27456l-14.78656-61.93152A778.24 778.24 0 0 1 754.4832 165.376l22.14912-22.89664a30.72 30.72 0 0 1 43.43808-0.7168z" fill="#E9B710" p-id="19796"></path><path d="M322.94912 996.77184a30.72 30.72 0 0 1-19.2512-38.94272l18.97472-56.0128a419.84 419.84 0 0 0-97.04448-427.76576l-6.98368-7.168a30.72 30.72 0 1 1 43.99104-42.88512l6.98368 7.168a481.28 481.28 0 0 1 111.24736 490.37312l-18.96448 55.99232a30.72 30.72 0 0 1-38.95296 19.2512z" fill="#FFCC11" p-id="19797"></path></svg>