<?xml version="1.0" standalone="no"?><!DOCTYPE svg PUBLIC "-//W3C//DTD SVG 1.1//EN" "http://www.w3.org/Graphics/SVG/1.1/DTD/svg11.dtd"><svg t="1624090660455" class="icon" viewBox="0 0 1024 1024" version="1.1" xmlns="http://www.w3.org/2000/svg" p-id="19632" xmlns:xlink="http://www.w3.org/1999/xlink" width="200" height="200"><defs><style type="text/css"></style></defs><path d="M512 323.368421m-323.368421 0a323.368421 323.368421 0 1 0 646.736842 0 323.368421 323.368421 0 1 0-646.736842 0Z" fill="#00B0F4" p-id="19633"></path><path d="M404.210526 929.684211a107.789474 67.368421 0 1 0 215.578948 0 107.789474 67.368421 0 1 0-215.578948 0Z" fill="#626669" p-id="19634"></path><path d="M512 323.368421m-107.789474 0a107.789474 107.789474 0 1 0 215.578948 0 107.789474 107.789474 0 1 0-215.578948 0Z" fill="#FFFFFF" p-id="19635"></path><path d="M485.052632 619.789474h53.894736v296.421052h-53.894736V619.789474z" fill="#00B0F4" p-id="19636"></path></svg>