<?xml version="1.0" standalone="no"?><!DOCTYPE svg PUBLIC "-//W3C//DTD SVG 1.1//EN" "http://www.w3.org/Graphics/SVG/1.1/DTD/svg11.dtd"><svg t="1624089649044" class="icon" viewBox="0 0 1024 1024" version="1.1" xmlns="http://www.w3.org/2000/svg" p-id="5819" xmlns:xlink="http://www.w3.org/1999/xlink" width="200" height="200"><defs><style type="text/css"></style></defs><path d="M507.3 866.7c-188.3 0-341.4-153.2-341.4-341.4 0-33.5 4.8-66.6 14.4-98.3 3.1-10.3 13.9-16.1 24.2-13 10.3 3.1 16.1 13.9 13 24.2-8.4 28.1-12.7 57.5-12.7 87.2 0 166.9 135.8 302.6 302.6 302.6S810 692.2 810 525.4 674.1 222.6 507.3 222.6c-93.6 0-180.5 42.3-238.3 116-6.6 8.4-18.8 9.9-27.2 3.3-8.4-6.6-9.9-18.8-3.3-27.2 65.2-83.2 163.2-130.9 268.8-130.9 188.3 0 341.4 153.2 341.4 341.4S695.5 866.7 507.3 866.7z" fill="#E73A36" p-id="5820"></path><path d="M518.9 747.5c-5.8 0-11.6-2.6-15.4-7.6-101-131.3-273.8-155.3-275.5-155.5-10.6-1.4-18.1-11.1-16.7-21.7 1.4-10.6 11.1-18.2 21.7-16.7 7.7 1 190.3 26 301.3 170.4 6.5 8.5 4.9 20.7-3.6 27.2-3.5 2.6-7.7 3.9-11.8 3.9zM828.8 562.8h-0.2c-354.7-3.7-531.5-267.1-538.8-278.3-5.9-9-3.4-21 5.6-26.9 9-5.9 21-3.4 26.8 5.6 1.7 2.6 173.4 257.3 506.8 260.8 10.7 0.1 19.3 8.9 19.2 19.6-0.1 10.6-8.8 19.2-19.4 19.2z" fill="#E73A36" p-id="5821"></path><path d="M316.7 804.2c-10.3 0-18.9-8.2-19.4-18.6-0.2-3.9-3.4-95.9 48.3-205C393.1 480.4 498 346.4 728 277.5c10.3-3.1 21.1 2.8 24.1 13 3.1 10.3-2.8 21.1-13 24.1-412.7 123.7-403.2 466-403 469.4 0.4 10.7-7.9 19.7-18.6 20.2h-0.8z" fill="#E73A36" p-id="5822"></path></svg>