<?xml version="1.0" standalone="no"?><!DOCTYPE svg PUBLIC "-//W3C//DTD SVG 1.1//EN" "http://www.w3.org/Graphics/SVG/1.1/DTD/svg11.dtd"><svg t="1624087152053" class="icon" viewBox="0 0 1151 1024" version="1.1" xmlns="http://www.w3.org/2000/svg" p-id="23045" xmlns:xlink="http://www.w3.org/1999/xlink" width="224.8046875" height="200"><defs><style type="text/css"></style></defs><path d="M1056.032649 342.978298l-292.151327-42.590736-130.588123-264.76014c-23.391306-47.198599-91.197293-47.806581-114.780592 0l-130.588124 264.76014-292.151326 42.590736C43.390712 350.562073 22.399335 415.168155 60.382207 452.159057l211.353726 205.977885L221.753417 949.104303c-8.991733 52.606438 46.398623 91.997269 92.797245 67.39l261.36824-137.371922 261.368241 137.371922c46.398623 24.383276 101.788978-14.783561 92.797245-67.39l-49.982516-290.967361 211.353725-205.977885c37.982872-36.990902 16.991496-101.596984-35.390949-109.180759z m-278.935719 281.559641l47.390593 276.759784-248.568621-130.588123-248.56862 130.588123 47.390593-276.759784-201.178028-195.962182 277.943749-40.382801 124.380307-251.96052 124.380308 251.96052 277.943748 40.382801-201.178027 195.962182z" p-id="23046" fill="#1296db"></path></svg>