<?xml version="1.0" standalone="no"?><!DOCTYPE svg PUBLIC "-//W3C//DTD SVG 1.1//EN" "http://www.w3.org/Graphics/SVG/1.1/DTD/svg11.dtd"><svg t="1624092062489" class="icon" viewBox="0 0 1024 1024" version="1.1" xmlns="http://www.w3.org/2000/svg" p-id="32014" xmlns:xlink="http://www.w3.org/1999/xlink" width="200" height="200"><defs><style type="text/css"></style></defs><path d="M539.08928 109.46133335l463.36 165.12c28.8 10.816 29.056 28.288 0.384 39.04L543.05728 477.26933335c-28.608 10.752-22.592 10.688-51.456-0.128L250.76928 392.53333335l-52.672-18.56a2.496 2.496 0 0 0-0.192 0.448c-41.152 34.048-53.12 86.592-54.72 145.408a53.824 53.824 0 0 1 23.232 44.864c0 17.664-8.064 33.28-20.48 42.88 7.04 109.824 18.048 271.424-72.448 312.96C48.72128 911.70133335 32.20928 902.86933335 0.20928 876.37333335c64.64-82.56 86.72-203.392 94.4-264.32a53.504 53.504 0 0 1-27.328-47.36c0-22.528 13.248-41.792 31.808-49.408 0.64-58.88 3.648-109.888 49.152-158.72l-15.552-5.504-110.72-38.976c-28.8-10.752-29.056-28.288-0.384-39.04l466.048-163.712c28.672-10.752 22.592-10.688 51.456 0.128zM237.00928 404.24533335a32 32 0 0 1 10.752 1.856l243.84 86.72c27.584 11.392 25.6 11.328 52.928 0l231.744-85.952a32 32 0 0 1 43.136 30.08v201.088c0 15.168-10.368 30.912-23.68 43.648-180.352 111.296-404.544 112.448-566.784 10.24-9.152-3.84-23.936-20.928-23.936-36.672 11.328-14.848 23.936-68.736 23.936-90.56 0-24.256-9.344-46.848-23.936-62.08V436.30933335a32 32 0 0 1 32-32zM256.20928 468.69333335v33.92c11.84 10.56 18.816 49.28 18.816 62.08 0 12.8-9.6 66.368-18.816 76.608 3.008 8.832 24.96 18.368 32.384 21.12 131.904 70.848 314.24 70.016 460.8-7.168 9.088-7.36 16.448-16.192 18.688-24.96l0.64-5.312V469.90933335L544.52928 542.74133335c-19.072 6.72-27.84 7.68-44.096 2.88l-8.832-2.88L256.20928 468.69333335z m394.368 47.552a5.76 5.76 0 0 1 5.44 4.16l15.488 49.92h50.112a5.76 5.76 0 0 1 5.504 4.16 6.208 6.208 0 0 1-2.112 6.72l-40.512 30.848 15.488 49.92a6.144 6.144 0 0 1-2.112 6.72 5.568 5.568 0 0 1-6.784 0l-40.512-30.848-40.512 30.848a5.568 5.568 0 0 1-6.784 0 6.144 6.144 0 0 1-2.048-6.72l15.424-49.92L576.20928 581.20533335a6.208 6.208 0 0 1-2.112-6.72 5.76 5.76 0 0 1 5.504-4.16h50.112l15.488-49.92a5.76 5.76 0 0 1 5.44-4.16z m-267.52 0a5.76 5.76 0 0 1 5.44 4.16l15.488 49.92h50.112a5.76 5.76 0 0 1 5.44 4.16 6.208 6.208 0 0 1-2.048 6.72l-40.512 30.848 15.424 49.92a6.144 6.144 0 0 1-2.048 6.72 5.568 5.568 0 0 1-6.784 0l-40.512-30.848-40.512 30.848a5.568 5.568 0 0 1-6.784 0 6.144 6.144 0 0 1-2.112-6.72l15.488-49.92-40.512-30.848a6.208 6.208 0 0 1-2.112-6.72 5.76 5.76 0 0 1 5.504-4.16h50.048l15.488-49.92a5.76 5.76 0 0 1 5.504-4.16zM507.98528 155.73333335l-7.68 2.56L153.80928 276.50133335 95.63328 293.33333335c35.264 8.256 54.528 12.8 57.728 13.44l0.512 0.192 39.488 12.928 278.272-106.112a51.2 51.2 0 0 1 49.024 6.976 15.488 15.488 0 0 1-3.968 26.88L261.39328 342.22933335l238.848 78.72c23.616 7.68 21.824 8.512 39.68 2.688l7.68-2.56 330.624-114.176 51.648-13.632-51.2-16.64-0.448-0.128-330.688-118.144c-23.552-7.616-21.76-8.448-39.552-2.56z" fill="#1E68FF" p-id="32015"></path></svg>