<?xml version="1.0" standalone="no"?><!DOCTYPE svg PUBLIC "-//W3C//DTD SVG 1.1//EN" "http://www.w3.org/Graphics/SVG/1.1/DTD/svg11.dtd"><svg t="1624090751795" class="icon" viewBox="0 0 1024 1024" version="1.1" xmlns="http://www.w3.org/2000/svg" p-id="23065" xmlns:xlink="http://www.w3.org/1999/xlink" width="200" height="200"><defs><style type="text/css"></style></defs><path d="M0 0m204.8 0l614.4 0q204.8 0 204.8 204.8l0 614.4q0 204.8-204.8 204.8l-614.4 0q-204.8 0-204.8-204.8l0-614.4q0-204.8 204.8-204.8Z" fill="#DAF9E7" p-id="23066"></path><path d="M718.122667 350.805333c4.650667 8.064 8.832 16.213333 12.544 24.533334l-212.096 122.453333 88.064 152.533333a399.488 399.488 0 0 0-63.445334-2.816l-70.997333-122.965333-202.794667 117.12a267.733333 267.733333 0 1 1 448.725334-290.858667z" fill="#04D45C" p-id="23067"></path><path d="M256.170667 802.304l73.770666-51.413333a397.994667 397.994667 0 0 1 515.2 51.413333H256.170667z" fill="#04D45C" fill-opacity=".6" p-id="23068"></path></svg>