<?xml version="1.0" standalone="no"?><!DOCTYPE svg PUBLIC "-//W3C//DTD SVG 1.1//EN" "http://www.w3.org/Graphics/SVG/1.1/DTD/svg11.dtd"><svg t="1624086575987" class="icon" viewBox="0 0 1024 1024" version="1.1" xmlns="http://www.w3.org/2000/svg" p-id="8615" xmlns:xlink="http://www.w3.org/1999/xlink" width="200" height="200"><defs><style type="text/css"></style></defs><path d="M512 1024C229.224296 1024 0 794.775704 0 512S229.224296 0 512 0s512 229.224296 512 512-229.224296 512-512 512z m0-303.407407c103.689481 0 187.733333-81.104593 187.733333-181.11526 0-131.925333-165.205333-223.687111-172.392296-227.612444L512 303.407407l-15.322074 8.457482c-7.205926 3.925333-172.411259 95.687111-172.411259 227.612444C324.266667 639.506963 408.329481 720.592593 512 720.592593z m0.18963-372.205037c41.225481 26.870519 140.932741 100.901926 140.93274 189.06074 0 76.079407-63.108741 137.746963-140.951703 137.746963-77.824 0-140.932741-61.667556-140.932741-137.746963 0-88.158815 99.726222-162.190222 140.932741-189.06074z m-94.056297 195.90637c0 10.808889 5.973333 20.764444 15.644445 26.168889a32.274963 32.274963 0 0 0 31.288889 0c9.671111-5.404444 15.644444-15.36 15.644444-26.168889 0-10.770963-5.973333-20.745481-15.644444-26.130963a32.274963 32.274963 0 0 0-31.288889 0c-9.671111 5.385481-15.644444 15.36-15.644445 26.130963z m62.577778 45.283555c0.037926 5.461333 3.034074 10.467556 7.831704 13.084445a16.137481 16.137481 0 0 0 15.644444 0 15.018667 15.018667 0 0 0 7.812741-13.084445 15.018667 15.018667 0 0 0-7.812741-13.084444 16.137481 16.137481 0 0 0-15.644444 0 15.018667 15.018667 0 0 0-7.831704 13.084444z" fill="#3CA6FA" p-id="8616"></path></svg>